# xmcd
#
# Track frame offsets: 
#        150
#        14779
#        29926
#        51161
#        70627
#        90590
#        108154
#        123769
#        142495
#        157872
#        176923
#
# Disc length: 2622 seconds
#
# Revision: 1
# Processed by: cddbd v1.5.2PL0 Copyright (c) Steve Scherf et al.
# Submitted via: ExactAudioCopyFreeDBPlugin 1.0
#
DISCID=9b0a3c0b
DTITLE=Heidi Talbot - Angels Without Wings
DYEAR=2013
DGENRE=Country
TTITLE0=Angels Without Wings
TTITLE1=Wine and Roses
TTITLE2=Dearest Johnny
TTITLE3=Button Up
TTITLE4=The Loneliest
TTITLE5=New Cajun Waltz
TTITLE6=Will I Ever Get To Sleep
TTITLE7=When The Roses Come Again
TTITLE8=I'm Not Sorry
TTITLE9=My Sister The Moon
TTITLE10=Arcadia
EXTD=YEAR: 2013
EXTT0=
EXTT1=
EXTT2=
EXTT3=
EXTT4=
EXTT5=
EXTT6=
EXTT7=
EXTT8=
EXTT9=
EXTT10=
PLAYORDER=
